<svg width="17" height="13" viewBox="0 0 17 13" fill="none" xmlns="http://www.w3.org/2000/svg">
<path d="M4.24607 0.000416074C4.23399 -0.000138691 4.22189 -0.000138691 4.20981 0.000416074C4.11542 0.0102813 4.02532 0.0559422 3.96207 0.125956L0.0948573 4.33452C-0.0363047 4.47794 -0.0306699 4.72322 0.106942 4.86059L8.22809 12.8951C8.37105 13.035 8.62895 13.035 8.77191 12.8951L16.8931 4.86059C17.0307 4.72322 17.0363 4.47794 16.9051 4.33452L13.0379 0.125956C12.9662 0.0477666 12.8606 0.00108658 12.7539 0.000416074H4.24607ZM4.41526 0.76561H6.42742L4.77177 4.20898H1.24898L4.41526 0.76561ZM7.28545 0.76561H9.71455L11.3702 4.20898H5.6298L7.28545 0.76561ZM10.5726 0.76561H12.5847L15.751 4.20898H12.2282L10.5726 0.76561ZM1.31545 4.97418H4.76572L7.35192 10.9463L1.31545 4.97418ZM5.60563 4.97418H11.3944L8.5 11.6457L5.60563 4.97418ZM12.2343 4.97418H15.6846L9.64808 10.9463L12.2343 4.97418Z" fill="#BA35F1"/>
</svg>
