<svg width="1339" height="625" viewBox="0 0 1339 625" fill="none" xmlns="http://www.w3.org/2000/svg">
    <g filter="url(#filter0_d)">
        <path d="M285.435 372L252.231 249.563H293.901L312.91 327.425L342.876 249.563H385.542L412.686 327.425L433.105 249.563H470.542L435.181 372H392.017L361.885 288.66L329.595 372H285.435ZM481.582 372V249.563H590.737V275.96H522.588V295.467H585.591V321.531H522.588V345.271H593.311V372H481.582ZM762.646 323.191L743.057 278.699L722.305 323.191H762.646ZM700.225 372H659.136L722.554 249.563H768.042L828.555 372H782.9L773.687 349.92H710.103L700.225 372ZM872.715 274.383V298.87H895.957C906.748 298.87 912.144 294.803 912.144 286.668C912.144 278.478 906.748 274.383 895.957 274.383H872.715ZM831.709 372V249.563H901.934C913.112 249.563 920.417 249.702 923.848 249.979C933.255 250.753 940.228 252.662 944.766 255.706C952.568 260.908 956.47 269.181 956.47 280.525C956.47 289.158 953.454 295.993 947.422 301.028C941.999 305.621 934.832 308.25 925.923 308.914C935.054 309.412 941.694 311.017 945.845 313.729C950.991 317.049 954.035 322.859 954.976 331.16L957.217 351.497C957.77 356.699 959.292 363.533 961.782 372H919.282C917.843 368.126 916.875 362.454 916.377 354.983L915.215 338.05C914.827 332.239 913.389 328.393 910.898 326.512C908.74 324.852 904.618 324.021 898.53 324.021H872.715V372H831.709ZM975.479 372V249.563H1084.63V275.96H1016.48V295.467H1079.49V321.531H1016.48V345.271H1087.21V372H975.479Z" fill="white"/>
        <path d="M285.435 372L284.469 372.262L284.67 373H285.435V372ZM252.231 249.563V248.563H250.924L251.266 249.825L252.231 249.563ZM293.901 249.563L294.873 249.326L294.687 248.563H293.901V249.563ZM312.91 327.425L311.939 327.662L312.696 330.765L313.843 327.784L312.91 327.425ZM342.876 249.563V248.563H342.189L341.943 249.204L342.876 249.563ZM385.542 249.563L386.486 249.234L386.252 248.563H385.542V249.563ZM412.686 327.425L411.741 327.754L412.821 330.851L413.653 327.678L412.686 327.425ZM433.105 249.563V248.563H432.334L432.138 249.31L433.105 249.563ZM470.542 249.563L471.503 249.841L471.872 248.563H470.542V249.563ZM435.181 372V373H435.933L436.141 372.277L435.181 372ZM392.017 372L391.076 372.34L391.315 373H392.017V372ZM361.885 288.66L362.825 288.32L361.917 285.809L360.952 288.299L361.885 288.66ZM329.595 372V373H330.28L330.527 372.361L329.595 372ZM286.4 371.738L253.197 249.302L251.266 249.825L284.469 372.262L286.4 371.738ZM252.231 250.563H293.901V248.563H252.231V250.563ZM292.93 249.801L311.939 327.662L313.882 327.188L294.873 249.326L292.93 249.801ZM313.843 327.784L343.809 249.923L341.943 249.204L311.977 327.066L313.843 327.784ZM342.876 250.563H385.542V248.563H342.876V250.563ZM384.598 249.893L411.741 327.754L413.63 327.096L386.486 249.234L384.598 249.893ZM413.653 327.678L434.073 249.817L432.138 249.31L411.718 327.171L413.653 327.678ZM433.105 250.563H470.542V248.563H433.105V250.563ZM469.581 249.286L434.22 371.723L436.141 372.277L471.503 249.841L469.581 249.286ZM435.181 371H392.017V373H435.181V371ZM392.957 371.66L362.825 288.32L360.944 289L391.076 372.34L392.957 371.66ZM360.952 288.299L328.662 371.639L330.527 372.361L362.817 289.021L360.952 288.299ZM329.595 371H285.435V373H329.595V371ZM481.582 372H480.582V373H481.582V372ZM481.582 249.563V248.563H480.582V249.563H481.582ZM590.737 249.563H591.737V248.563H590.737V249.563ZM590.737 275.96V276.96H591.737V275.96H590.737ZM522.588 275.96V274.96H521.588V275.96H522.588ZM522.588 295.467H521.588V296.467H522.588V295.467ZM585.591 295.467H586.591V294.467H585.591V295.467ZM585.591 321.531V322.531H586.591V321.531H585.591ZM522.588 321.531V320.531H521.588V321.531H522.588ZM522.588 345.271H521.588V346.271H522.588V345.271ZM593.311 345.271H594.311V344.271H593.311V345.271ZM593.311 372V373H594.311V372H593.311ZM482.582 372V249.563H480.582V372H482.582ZM481.582 250.563H590.737V248.563H481.582V250.563ZM589.737 249.563V275.96H591.737V249.563H589.737ZM590.737 274.96H522.588V276.96H590.737V274.96ZM521.588 275.96V295.467H523.588V275.96H521.588ZM522.588 296.467H585.591V294.467H522.588V296.467ZM584.591 295.467V321.531H586.591V295.467H584.591ZM585.591 320.531H522.588V322.531H585.591V320.531ZM521.588 321.531V345.271H523.588V321.531H521.588ZM522.588 346.271H593.311V344.271H522.588V346.271ZM592.311 345.271V372H594.311V345.271H592.311ZM593.311 371H481.582V373H593.311V371ZM762.646 323.191V324.191H764.179L763.562 322.788L762.646 323.191ZM743.057 278.699L743.972 278.296L743.083 276.277L742.15 278.277L743.057 278.699ZM722.305 323.191L721.398 322.769L720.735 324.191H722.305V323.191ZM700.225 372V373H700.873L701.137 372.408L700.225 372ZM659.136 372L658.248 371.54L657.492 373H659.136V372ZM722.554 249.563V248.563H721.945L721.666 249.104L722.554 249.563ZM768.042 249.563L768.938 249.12L768.663 248.563H768.042V249.563ZM828.555 372V373H830.164L829.451 371.557L828.555 372ZM782.9 372L781.978 372.385L782.234 373H782.9V372ZM773.687 349.92L774.609 349.535L774.353 348.92H773.687V349.92ZM710.103 349.92V348.92H709.454L709.19 349.512L710.103 349.92ZM763.562 322.788L743.972 278.296L742.141 279.102L761.731 323.594L763.562 322.788ZM742.15 278.277L721.398 322.769L723.211 323.614L743.963 279.122L742.15 278.277ZM722.305 324.191H762.646V322.191H722.305V324.191ZM700.225 371H659.136V373H700.225V371ZM660.024 372.46L723.442 250.023L721.666 249.104L658.248 371.54L660.024 372.46ZM722.554 250.563H768.042V248.563H722.554V250.563ZM767.146 250.007L827.658 372.443L829.451 371.557L768.938 249.12L767.146 250.007ZM828.555 371H782.9V373H828.555V371ZM783.823 371.615L774.609 349.535L772.764 350.305L781.978 372.385L783.823 371.615ZM773.687 348.92H710.103V350.92H773.687V348.92ZM709.19 349.512L699.312 371.592L701.137 372.408L711.015 350.328L709.19 349.512ZM872.715 274.383V273.383H871.715V274.383H872.715ZM872.715 298.87H871.715V299.87H872.715V298.87ZM831.709 372H830.709V373H831.709V372ZM831.709 249.563V248.563H830.709V249.563H831.709ZM923.848 249.979L923.93 248.982L923.928 248.982L923.848 249.979ZM944.766 255.706L944.209 256.537L944.211 256.538L944.766 255.706ZM947.422 301.028L946.781 300.261L946.776 300.265L947.422 301.028ZM925.923 308.914L925.849 307.917L925.868 309.913L925.923 308.914ZM945.845 313.729L945.298 314.566L945.303 314.569L945.845 313.729ZM954.976 331.16L955.97 331.051L955.969 331.048L954.976 331.16ZM957.217 351.497L958.211 351.391L958.211 351.388L957.217 351.497ZM961.782 372V373H963.119L962.742 371.718L961.782 372ZM919.282 372L918.345 372.348L918.587 373H919.282V372ZM916.377 354.983L917.375 354.917L917.375 354.915L916.377 354.983ZM915.215 338.05L914.217 338.116L914.217 338.118L915.215 338.05ZM910.898 326.512L910.289 327.304L910.296 327.31L910.898 326.512ZM872.715 324.021V323.021H871.715V324.021H872.715ZM872.715 372V373H873.715V372H872.715ZM871.715 274.383V298.87H873.715V274.383H871.715ZM872.715 299.87H895.957V297.87H872.715V299.87ZM895.957 299.87C901.45 299.87 905.751 298.84 908.699 296.618C911.7 294.356 913.144 290.977 913.144 286.668H911.144C911.144 290.493 909.89 293.216 907.495 295.021C905.047 296.867 901.256 297.87 895.957 297.87V299.87ZM913.144 286.668C913.144 282.333 911.701 278.934 908.701 276.658C905.754 274.42 901.451 273.383 895.957 273.383V275.383C901.255 275.383 905.045 276.393 907.492 278.251C909.888 280.069 911.144 282.812 911.144 286.668H913.144ZM895.957 273.383H872.715V275.383H895.957V273.383ZM832.709 372V249.563H830.709V372H832.709ZM831.709 250.563H901.934V248.563H831.709V250.563ZM901.934 250.563C913.121 250.563 920.384 250.702 923.767 250.975L923.928 248.982C920.449 248.701 913.103 248.563 901.934 248.563V250.563ZM923.766 250.975C933.111 251.745 939.881 253.634 944.209 256.537L945.323 254.876C940.575 251.691 933.4 249.762 923.93 248.982L923.766 250.975ZM944.211 256.538C951.675 261.514 955.47 269.435 955.47 280.525H957.47C957.47 268.927 953.462 260.302 945.32 254.874L944.211 256.538ZM955.47 280.525C955.47 288.895 952.561 295.435 946.781 300.261L948.063 301.796C954.346 296.55 957.47 289.422 957.47 280.525H955.47ZM946.776 300.265C941.551 304.69 934.602 307.264 925.849 307.917L925.997 309.911C935.063 309.236 942.447 306.553 948.068 301.791L946.776 300.265ZM925.868 309.913C934.949 310.408 941.373 312.001 945.298 314.566L946.392 312.891C942.016 310.033 935.158 308.416 925.977 307.916L925.868 309.913ZM945.303 314.569C950.114 317.673 953.062 323.155 953.982 331.273L955.969 331.048C955.008 322.564 951.869 316.425 946.387 312.888L945.303 314.569ZM953.982 331.27L956.223 351.607L958.211 351.388L955.97 331.051L953.982 331.27ZM956.222 351.603C956.785 356.891 958.326 363.791 960.823 372.282L962.742 371.718C960.258 363.275 958.755 356.507 958.211 351.391L956.222 351.603ZM961.782 371H919.282V373H961.782V371ZM920.22 371.652C918.831 367.914 917.871 362.356 917.375 354.917L915.379 355.05C915.879 362.552 916.856 368.339 918.345 372.348L920.22 371.652ZM917.375 354.915L916.213 337.981L914.217 338.118L915.379 355.052L917.375 354.915ZM916.213 337.983C915.821 332.113 914.359 327.873 911.501 325.714L910.296 327.31C912.418 328.913 913.834 332.365 914.217 338.116L916.213 337.983ZM911.508 325.719C910.26 324.759 908.523 324.094 906.385 323.664C904.237 323.231 901.614 323.021 898.53 323.021V325.021C901.534 325.021 904.016 325.227 905.99 325.624C907.976 326.024 909.379 326.605 910.289 327.304L911.508 325.719ZM898.53 323.021H872.715V325.021H898.53V323.021ZM871.715 324.021V372H873.715V324.021H871.715ZM872.715 371H831.709V373H872.715V371ZM975.479 372H974.479V373H975.479V372ZM975.479 249.563V248.563H974.479V249.563H975.479ZM1084.63 249.563H1085.63V248.563H1084.63V249.563ZM1084.63 275.96V276.96H1085.63V275.96H1084.63ZM1016.48 275.96V274.96H1015.48V275.96H1016.48ZM1016.48 295.467H1015.48V296.467H1016.48V295.467ZM1079.49 295.467H1080.49V294.467H1079.49V295.467ZM1079.49 321.531V322.531H1080.49V321.531H1079.49ZM1016.48 321.531V320.531H1015.48V321.531H1016.48ZM1016.48 345.271H1015.48V346.271H1016.48V345.271ZM1087.21 345.271H1088.21V344.271H1087.21V345.271ZM1087.21 372V373H1088.21V372H1087.21ZM976.479 372V249.563H974.479V372H976.479ZM975.479 250.563H1084.63V248.563H975.479V250.563ZM1083.63 249.563V275.96H1085.63V249.563H1083.63ZM1084.63 274.96H1016.48V276.96H1084.63V274.96ZM1015.48 275.96V295.467H1017.48V275.96H1015.48ZM1016.48 296.467H1079.49V294.467H1016.48V296.467ZM1078.49 295.467V321.531H1080.49V295.467H1078.49ZM1079.49 320.531H1016.48V322.531H1079.49V320.531ZM1015.48 321.531V345.271H1017.48V321.531H1015.48ZM1016.48 346.271H1087.21V344.271H1016.48V346.271ZM1086.21 345.271V372H1088.21V345.271H1086.21ZM1087.21 371H975.479V373H1087.21V371Z" fill="white"/>
    </g>
    <defs>
        <filter id="filter0_d" x="0.924133" y="0.563477" width="1337.28" height="624.437" filterUnits="userSpaceOnUse" color-interpolation-filters="sRGB">
            <feFlood flood-opacity="0" result="BackgroundImageFix"/>
            <feColorMatrix in="SourceAlpha" type="matrix" values="0 0 0 0 0 0 0 0 0 0 0 0 0 0 0 0 0 0 127 0" result="hardAlpha"/>
            <feOffset dy="2"/>
            <feGaussianBlur stdDeviation="125"/>
            <feComposite in2="hardAlpha" operator="out"/>
            <feColorMatrix type="matrix" values="0 0 0 0 0.72549 0 0 0 0 0.215686 0 0 0 0 0.894118 0 0 0 1 0"/>
            <feBlend mode="normal" in2="BackgroundImageFix" result="effect1_dropShadow"/>
            <feBlend mode="normal" in="SourceGraphic" in2="effect1_dropShadow" result="shape"/>
        </filter>
    </defs>
</svg>
