<svg width="106" height="40" viewBox="0 0 106 40" fill="none" xmlns="http://www.w3.org/2000/svg">
<path fill-rule="evenodd" clip-rule="evenodd" d="M17.394 37.1585V36.3521L17.1198 36.0585H12.3829L11.2487 34.9772V30.7789L12.3829 29.6426H20.4663V32.2087H14.6687L14.3945 32.4842V33.3087L14.6687 33.5836H19.4056L20.5398 34.7017V38.8632L19.4056 40.0001H11.3222V37.4334H17.1198L17.394 37.1585ZM21.7463 29.6426H31.5671V32.2087H28.2206V40.0001H25.0935V32.2087H21.7463V29.6426ZM37.2919 36.7H35.9931V40.0001H32.8479V29.6426H41.8275L42.961 30.7788V35.3801L41.5346 36.7H40.6932L42.9798 40.0001H39.541L37.2919 36.7ZM39.5048 34.3906L39.7971 34.097V32.4842L39.5048 32.2087H35.9931V34.3906H39.5048ZM47.5331 37.4333H53.4404V40.0001H44.3873V29.6426H53.4404V32.2087H47.5331V33.5835H52.7268V36.0585H47.5331V37.4333ZM61.2859 36.3522L60.1342 32.924L58.9452 36.3522H61.2859ZM54.3729 40.0001L58.2136 29.6426H62.0363L65.8764 40.0001H62.6028L62.1092 38.6433H58.1407L57.6465 40.0001H54.3729ZM70.0099 40.0001H66.864V29.6607H70.0099V33.6205H70.8873L73.8867 29.6607H77.3797L74.3803 33.6205H75.5693L76.7029 34.7574V40.0001H73.5757V36.4433L73.2835 36.1685H70.0099V40.0001ZM78.2029 40.0001H81.3301V29.6426H78.2029V40.0001ZM85.9576 40.0001H82.8304V29.6426H85.9576L89.6699 34.6286V29.6426H92.7971V40.0001H90.1822L85.9576 34.4637V40.0001ZM94.1686 33.6754H97.0035V29.6426H94.1686V33.6754Z" fill="#FEFEFE"/>
<path fill-rule="evenodd" clip-rule="evenodd" d="M90.2731 18.7348H105.343V24.8759H82.7388V0H105.343V6.15914H90.2731V9.47735H105.343V15.4166H90.2731V18.7348Z" fill="#FEFEFE"/>
<path fill-rule="evenodd" clip-rule="evenodd" d="M62.8951 24.8759H55.36V0H62.8951L71.783 11.9704V0H79.318V24.8759H73.045L62.8951 11.5487V24.8759Z" fill="#FEFEFE"/>
<path fill-rule="evenodd" clip-rule="evenodd" d="M12.5461 15.3248V9.29369H24.1592V24.8759H2.72522L0 22.1442V2.731L2.72522 0H24.1592V6.15914H8.2118L7.53501 6.83753V18.0383L8.2118 18.7348H16.7339V15.3248H12.5461Z" fill="#FEFEFE"/>
<path fill-rule="evenodd" clip-rule="evenodd" d="M49.2148 0L51.9581 2.731V22.1442L49.2148 24.8759H30.3041L27.5795 22.1442V2.731L30.3041 0H49.2148ZM42.3203 10.5199V3.15282L31.7866 14.3717H37.2006V21.7394L47.7531 10.5199H42.3203Z" fill="#FEFEFE"/>
</svg>
