<svg width="161" height="29" viewBox="0 0 161 29" fill="none" xmlns="http://www.w3.org/2000/svg">
<path d="M33.0902 7.81696C31.7344 7.78983 30.3869 8.03254 29.1284 8.53058C27.8699 9.02861 26.7262 9.77174 25.7658 10.7155C24.8053 11.6593 24.0477 12.7844 23.5384 14.0234C23.0291 15.2624 22.7785 16.59 22.8016 17.9267C22.7699 19.2639 23.015 20.5934 23.5218 21.8342C24.0285 23.075 24.7864 24.2009 25.7492 25.1434C26.712 26.0858 27.8594 26.8251 29.1216 27.3159C30.3837 27.8068 31.7341 28.039 33.0902 27.9983C34.4518 28.0333 35.8065 27.7965 37.0729 27.3023C38.3393 26.808 39.4912 26.0664 40.4595 25.122C41.4277 24.1777 42.1923 23.0501 42.7073 21.8071C43.2223 20.564 43.477 19.2312 43.4562 17.8886C43.4794 16.5472 43.2259 15.2151 42.7113 13.9731C42.1966 12.731 41.4315 11.605 40.4622 10.6633C39.4929 9.72149 38.3397 8.9836 37.0725 8.49433C35.8053 8.00507 34.4505 7.77462 33.0902 7.81696ZM33.1289 23.8283C32.3552 23.8314 31.5889 23.6787 30.8772 23.3797C30.1654 23.0806 29.5231 22.6415 28.9895 22.0891C28.4559 21.5368 28.0423 20.8828 27.7741 20.1674C27.5059 19.4519 27.3886 18.69 27.4295 17.9283C27.3804 17.1661 27.4904 16.402 27.7527 15.6834C28.0151 14.9647 28.4242 14.3067 28.9548 13.7502C29.4853 13.1936 30.1261 12.7502 30.8374 12.4475C31.5487 12.1448 32.3155 11.9892 33.0902 11.9903C33.869 11.9872 34.6403 12.1409 35.3567 12.4418C36.0732 12.7428 36.7198 13.1848 37.2569 13.7407C37.7941 14.2965 38.2105 14.9547 38.4807 15.6747C38.7508 16.3948 38.8691 17.1617 38.8282 17.9283C38.8691 18.69 38.7519 19.4519 38.4836 20.1674C38.2154 20.8828 37.8018 21.5368 37.2683 22.0891C36.7347 22.6415 36.0923 23.0806 35.3806 23.3797C34.6688 23.6787 33.9026 23.8314 33.1289 23.8283ZM44.7156 12.2154H47.5854V27.6242H52.1747V8.19274H44.7173L44.7156 12.2154ZM11.2434 11.9886C12.3713 11.976 13.473 12.3241 14.3833 12.9807C15.2937 13.6373 15.9637 14.567 16.2929 15.6306H21.1509C20.7401 13.3743 19.5155 11.3405 17.703 9.90444C15.8905 8.46839 13.6123 7.72697 11.2887 7.81696C9.93276 7.78982 8.58516 8.03258 7.32654 8.53072C6.06792 9.02886 4.92415 9.77214 3.96364 10.7161C3.00313 11.6601 2.24561 12.7853 1.7364 14.0245C1.2272 15.2638 0.976761 16.5915 1.00007 17.9283C0.968182 19.2656 1.21306 20.5953 1.71976 21.8361C2.22646 23.077 2.98435 24.2031 3.94718 25.1456C4.91 26.0881 6.05756 26.8273 7.3198 27.3181C8.58205 27.8088 9.93251 28.0409 11.2887 28C13.6109 28.072 15.8818 27.318 17.6866 25.8758C19.4914 24.4336 20.7097 22.3995 21.119 20.145H16.2996C15.9861 21.2136 15.3268 22.1519 14.4222 22.8169C13.5175 23.4819 12.4171 23.8371 11.2887 23.8283C10.5161 23.8337 9.75058 23.6822 9.03983 23.3834C8.32909 23.0846 7.68831 22.6449 7.15736 22.0915C6.6264 21.5381 6.21663 20.8829 5.95354 20.1667C5.69044 19.4505 5.57965 18.6886 5.62804 17.9283C5.57162 17.1681 5.67507 16.4046 5.93189 15.6857C6.18872 14.9667 6.59339 14.3078 7.12056 13.7501C7.64772 13.1925 8.28602 12.7482 8.99546 12.4451C9.70491 12.142 10.4702 11.9866 11.2434 11.9886ZM131.925 16.0478L128.566 15.5594C126.961 15.3343 125.813 14.8079 125.813 13.5729C125.813 12.2204 127.305 11.5433 129.339 11.5433C131.557 11.5433 132.973 12.482 133.278 14.0265H137.715C137.211 10.118 134.157 7.82523 129.453 7.82523C124.595 7.82523 121.383 10.2687 121.383 13.7252C121.383 17.0361 123.487 18.9497 127.732 19.5507L131.09 20.039C132.736 20.2642 133.653 20.9048 133.653 22.1067C133.653 23.6479 132.048 24.2869 129.828 24.2869C127.111 24.2869 125.581 23.1976 125.352 21.5438H120.832C121.253 25.3397 124.274 28 129.782 28C134.793 28 138.12 25.7453 138.12 21.8749C138.121 18.415 135.712 16.6123 131.925 16.0478ZM49.8809 0.187064C49.4944 0.172774 49.1089 0.236497 48.7482 0.374325C48.3875 0.512152 48.0592 0.721177 47.7834 0.988574C47.5076 1.25597 47.2901 1.5761 47.1443 1.92933C46.9985 2.28255 46.9275 2.66142 46.9355 3.04269C46.9355 3.81278 47.2458 4.55133 47.7982 5.09586C48.3506 5.6404 49.0998 5.94632 49.8809 5.94632C50.6621 5.94632 51.4112 5.6404 51.9636 5.09586C52.516 4.55133 52.8263 3.81278 52.8263 3.04269C52.8343 2.66142 52.7633 2.28255 52.6175 1.92933C52.4717 1.5761 52.2542 1.25597 51.9784 0.988574C51.7026 0.721177 51.3743 0.512152 51.0136 0.374325C50.6529 0.236497 50.2675 0.172774 49.8809 0.187064ZM117.238 14.8459C117.238 10.6378 114.637 7.81861 109.129 7.81861C103.924 7.81861 101.02 10.4127 100.446 14.3956H104.998C105.228 12.8544 106.453 11.5814 109.052 11.5814C111.386 11.5814 112.533 12.5962 112.533 13.8361C112.533 15.4518 110.429 15.8657 107.831 16.1289C104.305 16.5047 99.9523 17.7065 99.9523 22.2176C99.9523 25.7138 102.592 27.9669 106.8 27.9669C108.097 28.0867 109.401 27.8169 110.54 27.1929C111.679 26.5689 112.6 25.6199 113.181 24.4706C113.207 24.9141 113.322 25.3481 113.519 25.7475C113.716 26.147 113.991 26.5039 114.329 26.7975C114.667 27.0912 115.061 27.3158 115.488 27.4582C115.915 27.6007 116.366 27.6583 116.815 27.6275H119.492V23.6032H117.238V14.8459ZM112.725 19.7328C112.697 20.3603 112.542 20.976 112.271 21.544C111.999 22.112 111.615 22.6209 111.141 23.0409C110.667 23.4609 110.113 23.7836 109.511 23.9901C108.91 24.1967 108.272 24.2829 107.637 24.2438C105.915 24.2438 104.461 23.5303 104.461 22.0272C104.461 20.1102 106.795 19.5838 108.936 19.3586C111.002 19.1716 112.149 18.7196 112.723 17.8555L112.725 19.7328ZM88.3606 7.81364C87.1747 7.79777 86 8.04204 84.9217 8.52877C83.8433 9.01549 82.8883 9.7325 82.1256 10.6279V0H77.5362V27.6242H82.0483V25.0699C82.8056 25.999 83.7676 26.7459 84.8613 27.2538C85.955 27.7618 87.1517 28.0176 88.3606 28.0017C89.6764 27.998 90.9778 27.7309 92.1858 27.2166C93.3938 26.7023 94.4833 25.9516 95.3882 25.0098C96.293 24.0681 96.9945 22.9549 97.45 21.738C97.9055 20.521 98.1055 19.2255 98.038 17.93C98.1001 16.6338 97.8966 15.3385 97.4397 14.1215C96.9827 12.9046 96.2817 11.7908 95.3784 10.8469C94.4751 9.90298 93.3882 9.14818 92.1824 8.62759C90.9766 8.107 89.6768 7.8313 88.3606 7.81696V7.81364ZM87.6721 23.825C86.8987 23.8281 86.1328 23.6755 85.4212 23.3767C84.7097 23.0778 84.0675 22.6389 83.534 22.0869C83.0005 21.5349 82.5868 20.8814 82.3184 20.1664C82.0499 19.4513 81.9323 18.6898 81.9728 17.9283C81.9353 17.1626 82.0558 16.3973 82.3271 15.6788C82.5984 14.9604 83.0149 14.3037 83.5512 13.7485C84.0875 13.1933 84.7325 12.7512 85.4472 12.449C86.1619 12.1468 86.9314 11.9908 87.709 11.9903C88.4847 11.9861 89.253 12.1395 89.9658 12.4411C90.6786 12.7428 91.3207 13.186 91.8519 13.7433C92.3832 14.3005 92.7921 14.9598 93.0533 15.6799C93.3144 16.4 93.4221 17.1654 93.3697 17.9283C93.4106 18.6899 93.2934 19.4517 93.0253 20.167C92.7572 20.8823 92.3438 21.5362 91.8104 22.0885C91.277 22.6409 90.6348 23.08 89.9233 23.3792C89.2117 23.6784 88.4457 23.8312 87.6721 23.8283V23.825ZM66.5574 7.81696C65.3766 7.74194 64.1962 7.96893 63.1306 8.47591C62.065 8.9829 61.1503 9.75268 60.4752 10.7107V8.19274H55.9228V27.6226H60.5121V17.0626C60.4541 16.4156 60.5339 15.7637 60.7462 15.1489C60.9586 14.534 61.2989 13.9697 61.7453 13.492C62.1917 13.0143 62.7345 12.6339 63.3387 12.375C63.943 12.1161 64.5955 11.9845 65.2543 11.9886C65.8472 11.9704 66.4372 12.0769 66.985 12.3011C67.5328 12.5253 68.0258 12.8621 68.4312 13.289C68.8366 13.7159 69.145 14.223 69.3358 14.7767C69.5267 15.3303 69.5956 15.9177 69.538 16.4997V27.6242H74.1274V16.162C74.1307 11.2752 71.5682 7.81696 66.5574 7.81696ZM160 17.2893C160.041 16.0289 159.818 14.7737 159.345 13.6019C158.872 12.4301 158.159 11.3669 157.251 10.4784C156.344 9.58993 155.26 8.89526 154.068 8.43767C152.876 7.98007 151.601 7.76934 150.323 7.81861C148.969 7.7864 147.623 8.02619 146.366 8.52338C145.109 9.02058 143.969 9.76476 143.013 10.7106C142.058 11.6565 141.307 12.7842 140.808 14.025C140.309 15.2659 140.071 16.594 140.11 17.9283C140.074 19.2665 140.317 20.5977 140.822 21.8401C141.328 23.0824 142.086 24.2099 143.049 25.1531C144.013 26.0963 145.162 26.8354 146.425 27.3249C147.689 27.8145 149.041 28.0442 150.398 28C152.521 28.1143 154.619 27.5092 156.345 26.2854C158.07 25.0616 159.319 23.2926 159.884 21.2723H155.102C154.716 22.1452 154.062 22.8764 153.231 23.3621C152.4 23.8479 151.436 24.0637 150.474 23.979C149.065 24.0225 147.692 23.5319 146.639 22.608C145.586 21.6841 144.933 20.3973 144.813 19.0127H159.998V17.2893H160ZM145.078 15.7846C145.326 14.6245 145.978 13.5867 146.921 12.8519C147.865 12.1172 149.04 11.732 150.242 11.7635C151.441 11.6906 152.624 12.063 153.558 12.8073C154.493 13.5515 155.11 14.6137 155.29 15.7846H145.078Z" fill="white"/>
</svg>
