<svg width="173" height="38" viewBox="0 0 173 38" fill="none" xmlns="http://www.w3.org/2000/svg">
<path d="M67.6818 12.1047C68.7431 12.7461 69.6412 13.6279 70.2126 14.8304C70.8657 16.033 71.1923 17.4761 71.1923 19.0793C71.1923 20.6827 70.8657 22.0457 70.131 23.2482C69.4778 24.4507 68.4981 25.3326 67.2734 25.8936C66.0489 26.5351 64.5793 26.8558 63.0282 26.8558C62.1301 26.8558 61.3136 26.6954 60.4972 26.3748C59.6807 26.1343 58.946 25.6532 58.3744 25.0921V33.4296H53.6392V11.4633H57.7213L58.1296 13.2271C59.9257 11.784 61.8851 11.0625 63.9261 11.0625C65.314 11.0625 66.6203 11.3832 67.6818 12.1047ZM65.0692 22.0457C65.8856 21.3242 66.2937 20.362 66.2937 19.1595C66.2937 17.9571 65.8856 16.9951 65.1508 16.1933C64.4161 15.3916 63.4364 15.0709 62.375 15.0709C61.4769 15.0709 60.6604 15.2313 60.0073 15.6321C59.3541 15.9528 58.8644 16.514 58.4562 17.2356V20.843C58.701 21.5647 59.1909 22.1257 59.7625 22.5267C60.4156 22.9275 61.1504 23.1679 62.0485 23.1679C63.273 23.1679 64.2527 22.7672 65.0692 22.0457Z" fill="white"/>
<path d="M73.9678 14.9086C74.7027 13.7862 75.6823 12.8242 76.9885 12.1828C78.2948 11.5415 79.7645 11.1406 81.3973 11.1406C83.0302 11.1406 84.4997 11.4613 85.806 12.1828C87.0307 12.8242 88.0104 13.7862 88.7451 14.9887C89.4799 16.1913 89.8064 17.474 89.8064 18.9972C89.8064 20.5204 89.4799 21.8031 88.7451 23.0056C88.0104 24.2081 87.1123 25.1701 85.806 25.8115C84.5813 26.4528 83.0302 26.8537 81.3973 26.8537C79.7645 26.8537 78.2948 26.533 76.9885 25.8918C75.6823 25.2503 74.7027 24.3685 73.9678 23.1659C73.3147 21.9634 72.9065 20.6005 72.9065 18.9972C72.9065 17.474 73.3147 16.1111 73.9678 14.9086ZM78.7848 21.8832C79.4379 22.6849 80.336 23.0056 81.3973 23.0056C82.4587 23.0056 83.3568 22.6048 84.0099 21.8832C84.6631 21.1617 84.9896 20.1195 84.9896 18.9972C84.9896 17.7947 84.6631 16.8326 84.0099 16.1111C83.275 15.3094 82.4587 14.9086 81.3157 14.9086C80.2543 14.9086 79.4379 15.3094 78.7032 16.0309C78.05 16.8326 77.7235 17.7947 77.7235 18.9972C77.7235 20.1195 78.05 21.0816 78.7848 21.8832Z" fill="white"/>
<path d="M97.4815 0.078125V26.4537H92.7463V0.078125H97.4815Z" fill="white"/>
<path d="M116.912 11.8623L107.278 33.5079H102.706L106.298 25.7315L99.4406 11.8623H104.829L108.748 20.5205L112.667 11.8623H116.912Z" fill="white"/>
<path d="M135.036 11.8622V26.4528C135.036 27.8157 134.628 29.0984 133.811 30.2209C132.995 31.3431 131.933 32.2251 130.545 32.8664C129.157 33.5078 127.688 33.8283 126.055 33.8283C124.83 33.8283 123.769 33.6681 122.871 33.4276C121.973 33.1069 121.238 32.7861 120.667 32.4656C120.014 32.0646 119.36 31.5836 118.626 30.9424L121.401 27.7355C122.055 28.377 122.789 28.8579 123.443 29.1787C124.096 29.4992 124.994 29.7397 125.973 29.7397C127.198 29.7397 128.178 29.4192 128.994 28.8579C129.811 28.2967 130.219 27.415 130.219 26.3727V24.2883C129.729 25.0098 129.076 25.6513 128.096 26.1322C127.116 26.6132 125.973 26.8537 124.667 26.8537C123.361 26.8537 122.055 26.533 120.912 25.8115C119.769 25.1701 118.871 24.2081 118.136 23.0056C117.483 21.8031 117.074 20.5204 117.074 19.0774C117.074 17.6343 117.401 16.2714 118.136 15.0689C118.871 13.8664 119.769 12.9043 120.993 12.1828C122.136 11.4613 123.361 11.1406 124.667 11.1406C125.892 11.1406 126.953 11.301 127.933 11.6216C128.912 11.9423 129.647 12.4233 130.137 12.9845L130.627 11.8622H135.036ZM130.219 20.8411V17.2335C129.892 16.512 129.402 15.9508 128.668 15.5499C127.933 15.1491 127.116 14.9086 126.137 14.9086C124.994 14.9086 124.014 15.3094 123.198 16.0309C122.381 16.7524 121.973 17.7145 121.973 18.917C121.973 20.0394 122.381 21.0816 123.198 21.8832C124.014 22.6849 124.994 23.0858 126.137 23.0858C128.015 23.0056 129.402 22.2841 130.219 20.8411Z" fill="white"/>
<path d="M138.956 14.9106C139.691 13.7081 140.67 12.8262 141.977 12.1047C143.283 11.4633 144.753 11.0625 146.386 11.0625C148.018 11.0625 149.488 11.3832 150.794 12.1047C152.019 12.7461 152.999 13.7081 153.733 14.9106C154.386 16.1131 154.795 17.3958 154.795 18.919C154.795 20.4423 154.468 21.725 153.733 22.9275C153.08 24.1299 152.1 25.0921 150.794 25.7334C149.569 26.3748 148.018 26.7756 146.386 26.7756C144.753 26.7756 143.283 26.4549 141.977 25.8136C140.67 25.1722 139.691 24.2904 138.956 23.0879C138.221 21.8852 137.895 20.5225 137.895 18.8388C137.895 17.4761 138.221 16.1131 138.956 14.9106ZM143.691 21.8852C144.344 22.687 145.242 23.0077 146.304 23.0077C147.365 23.0077 148.263 22.6067 148.916 21.8852C149.569 21.1637 149.896 20.1215 149.896 18.9993C149.896 17.7966 149.569 16.8346 148.916 16.1131C148.263 15.3916 147.365 14.9908 146.304 14.9908C145.242 14.9908 144.426 15.3916 143.691 16.1131C142.956 16.8346 142.63 17.8768 142.63 18.9993C142.712 20.1215 143.038 21.0835 143.691 21.8852Z" fill="white"/>
<path d="M171.532 12.3432C172.512 13.1448 172.919 14.187 173 15.4698V26.4528H168.184V17.2335C168.102 15.7904 167.368 15.0689 165.979 15.0689C164.918 15.0689 164.02 15.5499 163.367 16.5921C162.714 17.6343 162.387 18.917 162.387 20.4402V26.4528H157.652V11.8622H161.979L162.306 14.187C162.877 13.225 163.612 12.5035 164.592 11.9423C165.571 11.3811 166.714 11.1406 168.021 11.1406C169.408 11.1406 170.633 11.5415 171.532 12.3432Z" fill="white"/>
<path d="M33.3917 11.6235C32.5752 11.1424 31.5139 11.1424 30.6159 11.6235L24.2477 15.3112L19.9207 17.7163L13.5526 21.404C12.7362 21.885 11.6748 21.885 10.7768 21.404L5.71496 18.5179C4.89854 18.0369 4.32704 17.1551 4.32704 16.1931V10.5011C4.32704 9.53906 4.8169 8.6572 5.71496 8.17619L10.6951 5.37029C11.5116 4.88928 12.5729 4.88928 13.471 5.37029L18.4512 8.17619C19.2675 8.6572 19.8391 9.53906 19.8391 10.5011V14.1889L24.1661 11.7036V8.01587C24.1661 7.05382 23.6763 6.17197 22.7782 5.69096L13.5526 0.399822C12.7362 -0.0811907 11.6748 -0.0811907 10.7768 0.399822L1.38792 5.69096C0.489854 6.17197 0 7.05382 0 8.01587V18.6783C0 19.6403 0.489854 20.5223 1.38792 21.0033L10.7768 26.2944C11.5932 26.7754 12.6546 26.7754 13.5526 26.2944L19.9207 22.6867L24.2477 20.2015L30.6159 16.5939C31.4323 16.1129 32.4936 16.1129 33.3917 16.5939L38.3719 19.3998C39.1882 19.8808 39.7598 20.7628 39.7598 21.7247V27.4166C39.7598 28.3788 39.27 29.2606 38.3719 29.7416L33.3917 32.6277C32.5752 33.1087 31.5139 33.1087 30.6159 32.6277L25.6358 29.8218C24.8193 29.3408 24.2477 28.4589 24.2477 27.4969V23.8092L19.9207 26.2944V29.9821C19.9207 30.9441 20.4106 31.826 21.3086 32.307L30.6975 37.5981C31.5139 38.0791 32.5752 38.0791 33.4733 37.5981L42.8623 32.307C43.6786 31.826 44.2502 30.9441 44.2502 29.9821V19.3196C44.2502 18.3576 43.7602 17.4758 42.8623 16.9948L33.3917 11.6235Z" fill="white"/>
</svg>
