<svg width="42" height="32" viewBox="0 0 42 32" fill="none" xmlns="http://www.w3.org/2000/svg">
<path d="M10.4903 0.00102418C10.4605 -0.000341394 10.4305 -0.000341394 10.4007 0.00102418C10.1675 0.0253079 9.9449 0.137704 9.78864 0.310045L0.234353 10.6696C-0.0896939 11.0226 -0.0757727 11.6264 0.264211 11.9645L20.3282 31.7419C20.6814 32.086 21.3186 32.086 21.6718 31.7419L41.7358 11.9645C42.0758 11.6264 42.0897 11.0226 41.7656 10.6696L32.2114 0.310045C32.0342 0.117579 31.7733 0.00267465 31.5097 0.00102418H10.4903ZM10.9083 1.88458H15.8795L11.7891 10.3606H3.08571L10.9083 1.88458ZM17.9994 1.88458H24.0006L28.0911 10.3606H13.9089L17.9994 1.88458ZM26.1205 1.88458H31.0917L38.9143 10.3606H30.2109L26.1205 1.88458ZM3.24993 12.2441H11.7741L18.1636 26.9447L3.24993 12.2441ZM13.8492 12.2441H28.1508L21 28.6664L13.8492 12.2441ZM30.2259 12.2441H38.7501L23.8364 26.9447L30.2259 12.2441Z" fill="url(#paint0_linear)"/>
<defs>
<linearGradient id="paint0_linear" x1="-9.24631e-09" y1="16.1758" x2="42.4369" y2="16.1758" gradientUnits="userSpaceOnUse">
<stop stop-color="#7BF1F5"/>
<stop offset="0.5" stop-color="#C439DD"/>
<stop offset="1" stop-color="#4925E9"/>
</linearGradient>
</defs>
</svg>
