<svg width="1328" height="197" viewBox="0 0 1328 197" fill="none" xmlns="http://www.w3.org/2000/svg">
<path fill-rule="evenodd" clip-rule="evenodd" d="M293.051 2.44336C258.135 2.44336 230.728 9.52927 210.725 23.5896C187.595 39.8731 175.984 64.5065 175.984 97.6738C175.984 131.217 186.649 156.022 207.839 172.291C226.815 186.836 253.61 194.174 288.354 194.174C324.3 194.174 352.22 187.463 372.222 174.156C395.842 158.297 407.705 133.549 407.705 99.7051C407.705 65.9166 396.708 40.9006 374.842 24.4594L374.841 24.4585C355.44 9.82422 328.218 2.44336 293.051 2.44336ZM209.575 21.9534C230.029 7.5762 257.889 0.443359 293.051 0.443359C328.469 0.443359 356.174 7.87339 376.044 22.8609C398.527 39.7661 409.705 65.4467 409.705 99.7051C409.705 134.076 397.617 159.516 373.335 175.819L373.331 175.821C352.878 189.428 324.515 196.174 288.354 196.174C253.358 196.174 226.071 188.786 206.622 173.878C184.818 157.138 173.984 131.67 173.984 97.6738C173.984 63.9795 185.818 38.6776 209.575 21.9534ZM543.783 2.95117C508.885 2.95117 481.58 10.7064 461.753 26.0981C439.871 43.2193 428.875 68.5425 428.875 102.244C428.875 133.299 439.643 156.76 461.1 172.791C480.258 187.012 505.967 194.174 538.324 194.174C569.654 194.174 593.895 189.864 611.132 181.328C633.68 170.137 646.407 151.185 649.316 124.318H585.004C583.157 135.166 578.815 143.448 571.897 149.042C564.809 154.774 555.145 157.58 543.021 157.58C525.95 157.58 512.894 152.121 504.029 141.083L504.025 141.078C496.053 131.027 492.129 117.195 492.129 99.7051C492.129 81.7116 496.051 67.4226 504.013 56.9514L504.014 56.9501C512.959 45.2253 526.276 39.418 543.783 39.418C554.123 39.418 562.434 41.7239 568.607 46.4475C574.61 51.0404 578.48 57.8327 580.281 66.7129H644.398C642.754 45.6104 633.731 29.8255 617.349 19.2313C600.633 8.42145 576.155 2.95117 543.783 2.95117ZM460.523 24.5207C480.813 8.76812 508.605 0.951172 543.783 0.951172C576.327 0.951172 601.254 6.44118 618.435 17.5519C635.675 28.7007 645.013 45.4437 646.471 67.6474L646.54 68.7129H578.626L578.474 67.8958C576.815 58.9807 573.097 52.4014 567.392 48.0359C561.674 43.6612 553.841 41.418 543.783 41.418C526.759 41.418 514.093 47.0364 505.604 58.1632C497.993 68.1737 494.129 81.9832 494.129 99.7051C494.129 116.915 497.991 130.251 505.591 139.835C513.992 150.292 526.41 155.58 543.021 155.58C554.85 155.58 564.017 152.843 570.64 147.487C577.254 142.138 581.459 134.075 583.166 123.164L583.299 122.318H651.526L651.419 123.415C648.68 151.487 635.548 171.443 612.021 183.12C594.388 191.851 569.794 196.174 538.324 196.174C505.683 196.174 479.511 188.949 459.906 174.395L459.903 174.393C437.858 157.923 426.875 133.82 426.875 102.244C426.875 68.0681 438.053 42.1023 460.52 24.523L460.523 24.5207ZM0.185547 3.74414H66.1699V150.121H163.924V193H0.185547V3.74414ZM2.18555 5.74414V191H161.924V152.121H64.1699V5.74414H2.18555ZM674.053 3.74414H739.021V72.4189L803.35 3.74414H883.011L807.392 85.1503L894.747 193H812.948L739.021 99.6585V193H674.053V3.74414ZM676.053 5.74414V191H737.021V93.9119L813.915 191H890.554L804.745 85.0606L878.423 5.74414H804.217L737.021 77.4796V5.74414H676.053ZM1002.61 3.74414H1068.59V193H1002.61V3.74414ZM1004.61 5.74414V191H1066.59V5.74414H1004.61ZM1100.62 3.74414H1181.49L1264.89 127.162V3.74414H1327.07V193H1243.26L1162.66 69.3022V193H1100.62V3.74414ZM1102.62 5.74414V191H1160.66V62.569L1244.34 191H1325.07V5.74414H1266.89V133.694L1180.43 5.74414H1102.62ZM250.987 56.7075C260.011 44.4751 273.37 38.4023 290.893 38.4023C308.696 38.4023 322.217 43.6201 331.262 54.2094C340.282 64.7685 344.705 80.5008 344.705 101.229C344.705 120.028 340.316 134.315 331.36 143.901C322.392 153.5 309.008 158.215 291.4 158.215C274.078 158.215 260.911 153.387 252.094 143.569C243.296 133.771 238.984 119.173 238.984 99.959C238.984 81.962 242.95 67.5111 250.987 56.7075ZM290.893 40.4023C273.885 40.4023 261.177 46.2626 252.596 57.8963L252.593 57.8997C244.889 68.2547 240.984 82.2408 240.984 99.959C240.984 118.915 245.242 132.945 253.582 142.233C261.904 151.5 274.445 156.215 291.4 156.215C308.663 156.215 321.431 151.599 329.898 142.536C338.377 133.46 342.705 119.753 342.705 101.229C342.705 80.7388 338.326 65.558 329.742 55.5084C321.183 45.4889 308.298 40.4023 290.893 40.4023Z" fill="#621C6E"/>
</svg>
