<svg width="1106" height="130" viewBox="0 0 1106 130" fill="none" xmlns="http://www.w3.org/2000/svg">
<path d="M33.0889 28.3828V52.8701H56.3311C67.1221 52.8701 72.5176 48.8027 72.5176 40.668C72.5176 32.4779 67.1221 28.3828 56.3311 28.3828H33.0889ZM-7.91699 126V3.56348H62.3076C73.486 3.56348 80.7907 3.70182 84.2217 3.97852C93.6292 4.75326 100.602 6.66243 105.14 9.70605C112.942 14.9079 116.844 23.181 116.844 34.5254C116.844 43.1582 113.828 49.9925 107.796 55.0283C102.373 59.6214 95.2064 62.25 86.2969 62.9141C95.4277 63.4121 102.068 65.0169 106.219 67.7285C111.365 71.0488 114.409 76.8594 115.35 85.1602L117.591 105.497C118.144 110.699 119.666 117.533 122.156 126H79.6562C78.2174 122.126 77.249 116.454 76.751 108.983L75.5889 92.0498C75.2015 86.2393 73.7627 82.3932 71.2725 80.5117C69.1143 78.8516 64.9915 78.0215 58.9043 78.0215H33.0889V126H-7.91699Z" stroke="url(#paint0_linear)" stroke-width="2"/>
<path d="M173.621 65.8193C173.621 90.777 184.827 103.256 207.239 103.256C230.039 103.256 241.438 91.0537 241.438 66.6494C241.438 39.6995 229.928 26.2246 206.907 26.2246C195.618 26.2246 187.096 30.126 181.341 37.9287C176.194 44.846 173.621 54.1429 173.621 65.8193ZM205.247 128.075C182.448 128.075 164.767 123.261 152.205 113.632C138.149 102.841 131.121 86.4053 131.121 64.3252C131.121 42.4665 138.785 26.1416 154.114 15.3506C167.34 6.05371 185.408 1.40527 208.318 1.40527C231.395 1.40527 249.352 6.2474 262.19 15.9316C276.689 26.8333 283.938 43.4072 283.938 65.6533C283.938 87.9548 276.108 104.363 260.447 114.877C247.221 123.676 228.821 128.075 205.247 128.075Z" stroke="url(#paint1_linear)" stroke-width="2"/>
<path d="M382.386 77.1914L362.796 32.6992L342.044 77.1914H382.386ZM319.964 126H278.875L342.293 3.56348H387.781L448.294 126H402.64L393.426 103.92H329.842L319.964 126Z" stroke="url(#paint2_linear)" stroke-width="2"/>
<path d="M513.206 30.458H493.118V99.2715H513.206C526.487 99.2715 536.31 96.9749 542.674 92.3818C550.089 87.014 553.797 77.9938 553.797 65.3213C553.797 42.0791 540.267 30.458 513.206 30.458ZM451.448 126V3.56348H521.507C544.14 3.56348 561.821 8.21191 574.549 17.5088C589.048 28.0785 596.297 44.2373 596.297 65.9854C596.297 86.848 589.518 102.37 575.96 112.553C563.896 121.518 547.046 126 525.408 126H451.448Z" stroke="url(#paint3_linear)" stroke-width="2"/>
<path d="M613.479 126V3.56348H681.629L713.089 79.4326L743.719 3.56348H806.971V126H767.708V27.3867L726.536 126H695.242L652.908 27.3867V126H613.479Z" stroke="url(#paint4_linear)" stroke-width="2"/>
<path d="M912.972 77.1914L893.382 32.6992L872.63 77.1914H912.972ZM850.55 126H809.461L872.879 3.56348H918.367L978.88 126H933.226L924.012 103.92H860.428L850.55 126Z" stroke="url(#paint5_linear)" stroke-width="2"/>
<path d="M1023.21 29.1299V54.7793H1046.45C1057.24 54.7793 1062.63 50.4629 1062.63 41.8301C1062.63 33.3633 1057.24 29.1299 1046.45 29.1299H1023.21ZM982.034 126V3.56348H1057.16C1072.1 3.56348 1083.28 5.94303 1090.69 10.7021C1099.77 16.568 1104.3 26.5013 1104.3 40.502C1104.3 53.8385 1100.15 64.1038 1091.85 71.2979C1084.05 78.0492 1073.34 81.4248 1059.73 81.4248H1023.21V126H982.034Z" stroke="url(#paint6_linear)" stroke-width="2"/>
<defs>
<linearGradient id="paint0_linear" x1="-7.91699" y1="65.4362" x2="1115.87" y2="65.4362" gradientUnits="userSpaceOnUse">
<stop stop-color="#7BF1F5"/>
<stop offset="0.5" stop-color="#C439DD"/>
<stop offset="1" stop-color="#4925E9"/>
</linearGradient>
<linearGradient id="paint1_linear" x1="-7.91699" y1="65.4362" x2="1115.87" y2="65.4362" gradientUnits="userSpaceOnUse">
<stop stop-color="#7BF1F5"/>
<stop offset="0.5" stop-color="#C439DD"/>
<stop offset="1" stop-color="#4925E9"/>
</linearGradient>
<linearGradient id="paint2_linear" x1="-7.91699" y1="65.4362" x2="1115.87" y2="65.4362" gradientUnits="userSpaceOnUse">
<stop stop-color="#7BF1F5"/>
<stop offset="0.5" stop-color="#C439DD"/>
<stop offset="1" stop-color="#4925E9"/>
</linearGradient>
<linearGradient id="paint3_linear" x1="-7.91699" y1="65.4362" x2="1115.87" y2="65.4362" gradientUnits="userSpaceOnUse">
<stop stop-color="#7BF1F5"/>
<stop offset="0.5" stop-color="#C439DD"/>
<stop offset="1" stop-color="#4925E9"/>
</linearGradient>
<linearGradient id="paint4_linear" x1="-7.91699" y1="65.4362" x2="1115.87" y2="65.4362" gradientUnits="userSpaceOnUse">
<stop stop-color="#7BF1F5"/>
<stop offset="0.5" stop-color="#C439DD"/>
<stop offset="1" stop-color="#4925E9"/>
</linearGradient>
<linearGradient id="paint5_linear" x1="-7.91699" y1="65.4362" x2="1115.87" y2="65.4362" gradientUnits="userSpaceOnUse">
<stop stop-color="#7BF1F5"/>
<stop offset="0.5" stop-color="#C439DD"/>
<stop offset="1" stop-color="#4925E9"/>
</linearGradient>
<linearGradient id="paint6_linear" x1="-7.91699" y1="65.4362" x2="1115.87" y2="65.4362" gradientUnits="userSpaceOnUse">
<stop stop-color="#7BF1F5"/>
<stop offset="0.5" stop-color="#C439DD"/>
<stop offset="1" stop-color="#4925E9"/>
</linearGradient>
</defs>
</svg>
