<svg width="1115" height="129" viewBox="0 0 1115 129" fill="none" xmlns="http://www.w3.org/2000/svg">
<path d="M42.0059 27.9775V52.4648H65.248C76.0391 52.4648 81.4346 48.3975 81.4346 40.2627C81.4346 32.0726 76.0391 27.9775 65.248 27.9775H42.0059ZM1 125.595V3.1582H71.2246C82.403 3.1582 89.7077 3.29655 93.1387 3.57324C102.546 4.34798 109.519 6.25716 114.057 9.30078C121.859 14.5026 125.761 22.7757 125.761 34.1201C125.761 42.7529 122.745 49.5872 116.713 54.623C111.29 59.2161 104.123 61.8447 95.2139 62.5088C104.345 63.0068 110.985 64.6117 115.136 67.3232C120.282 70.6436 123.326 76.4541 124.267 84.7549L126.508 105.092C127.061 110.294 128.583 117.128 131.073 125.595H88.5732C87.1344 121.721 86.166 116.049 85.668 108.578L84.5059 91.6445C84.1185 85.834 82.6797 81.988 80.1895 80.1064C78.0312 78.4463 73.9085 77.6162 67.8213 77.6162H42.0059V125.595H1Z" stroke="url(#paint0_linear)" stroke-width="2"/>
<path d="M182.538 65.4141C182.538 90.3717 193.744 102.851 216.156 102.851C238.956 102.851 250.355 90.6484 250.355 66.2441C250.355 39.2943 238.845 25.8193 215.824 25.8193C204.535 25.8193 196.013 29.7207 190.258 37.5234C185.111 44.4408 182.538 53.7376 182.538 65.4141ZM214.164 127.67C191.365 127.67 173.684 122.855 161.122 113.227C147.066 102.436 140.038 86 140.038 63.9199C140.038 42.0612 147.702 25.7363 163.031 14.9453C176.257 5.64844 194.325 1 217.235 1C240.312 1 258.269 5.84212 271.107 15.5264C285.606 26.4281 292.855 43.002 292.855 65.248C292.855 87.5495 285.025 103.957 269.364 114.472C256.138 123.271 237.738 127.67 214.164 127.67Z" stroke="url(#paint1_linear)" stroke-width="2"/>
<path d="M391.303 76.7861L371.713 32.2939L350.961 76.7861H391.303ZM328.881 125.595H287.792L351.21 3.1582H396.698L457.211 125.595H411.557L402.343 103.515H338.759L328.881 125.595Z" stroke="url(#paint2_linear)" stroke-width="2"/>
<path d="M522.123 30.0527H502.035V98.8662H522.123C535.404 98.8662 545.227 96.5697 551.591 91.9766C559.006 86.6087 562.714 77.5885 562.714 64.916C562.714 41.6738 549.184 30.0527 522.123 30.0527ZM460.365 125.595V3.1582H530.424C553.057 3.1582 570.738 7.80664 583.466 17.1035C597.965 27.6732 605.214 43.832 605.214 65.5801C605.214 86.4427 598.435 101.965 584.877 112.147C572.813 121.112 555.963 125.595 534.325 125.595H460.365Z" stroke="url(#paint3_linear)" stroke-width="2"/>
<path d="M622.396 125.595V3.1582H690.546L722.006 79.0273L752.636 3.1582H815.888V125.595H776.625V26.9814L735.453 125.595H704.159L661.825 26.9814V125.595H622.396Z" stroke="url(#paint4_linear)" stroke-width="2"/>
<path d="M921.889 76.7861L902.299 32.2939L881.547 76.7861H921.889ZM859.467 125.595H818.378L881.796 3.1582H927.284L987.797 125.595H942.143L932.929 103.515H869.345L859.467 125.595Z" stroke="url(#paint5_linear)" stroke-width="2"/>
<path d="M1032.12 28.7246V54.374H1055.37C1066.16 54.374 1071.55 50.0576 1071.55 41.4248C1071.55 32.958 1066.16 28.7246 1055.37 28.7246H1032.12ZM990.951 125.595V3.1582H1066.07C1081.01 3.1582 1092.19 5.53776 1099.61 10.2969C1108.68 16.1628 1113.22 26.096 1113.22 40.0967C1113.22 53.4333 1109.07 63.6986 1100.77 70.8926C1092.97 77.6439 1082.26 81.0195 1068.65 81.0195H1032.12V125.595H990.951Z" stroke="url(#paint6_linear)" stroke-width="2"/>
<defs>
<linearGradient id="paint0_linear" x1="1" y1="65.031" x2="1124.79" y2="65.031" gradientUnits="userSpaceOnUse">
<stop stop-color="#7BF1F5"/>
<stop offset="0.5" stop-color="#C439DD"/>
<stop offset="1" stop-color="#4925E9"/>
</linearGradient>
<linearGradient id="paint1_linear" x1="1" y1="65.031" x2="1124.79" y2="65.031" gradientUnits="userSpaceOnUse">
<stop stop-color="#7BF1F5"/>
<stop offset="0.5" stop-color="#C439DD"/>
<stop offset="1" stop-color="#4925E9"/>
</linearGradient>
<linearGradient id="paint2_linear" x1="1" y1="65.031" x2="1124.79" y2="65.031" gradientUnits="userSpaceOnUse">
<stop stop-color="#7BF1F5"/>
<stop offset="0.5" stop-color="#C439DD"/>
<stop offset="1" stop-color="#4925E9"/>
</linearGradient>
<linearGradient id="paint3_linear" x1="1" y1="65.031" x2="1124.79" y2="65.031" gradientUnits="userSpaceOnUse">
<stop stop-color="#7BF1F5"/>
<stop offset="0.5" stop-color="#C439DD"/>
<stop offset="1" stop-color="#4925E9"/>
</linearGradient>
<linearGradient id="paint4_linear" x1="1" y1="65.031" x2="1124.79" y2="65.031" gradientUnits="userSpaceOnUse">
<stop stop-color="#7BF1F5"/>
<stop offset="0.5" stop-color="#C439DD"/>
<stop offset="1" stop-color="#4925E9"/>
</linearGradient>
<linearGradient id="paint5_linear" x1="1" y1="65.031" x2="1124.79" y2="65.031" gradientUnits="userSpaceOnUse">
<stop stop-color="#7BF1F5"/>
<stop offset="0.5" stop-color="#C439DD"/>
<stop offset="1" stop-color="#4925E9"/>
</linearGradient>
<linearGradient id="paint6_linear" x1="1" y1="65.031" x2="1124.79" y2="65.031" gradientUnits="userSpaceOnUse">
<stop stop-color="#7BF1F5"/>
<stop offset="0.5" stop-color="#C439DD"/>
<stop offset="1" stop-color="#4925E9"/>
</linearGradient>
</defs>
</svg>
