<svg width="839" height="125" viewBox="0 0 839 125" fill="white" xmlns="http://www.w3.org/2000/svg">
    <path d="M35.4346 124L2.23145 1.56348H43.9014L62.9102 79.4248L92.876 1.56348H135.542L162.686 79.4248L183.105 1.56348H220.542L185.181 124H142.017L111.885 40.6602L79.5947 124H35.4346Z" stroke="white" stroke-width="2"/>
    <path d="M231.582 124V1.56348H340.737V27.96H272.588V47.4668H335.591V73.5312H272.588V97.2715H343.311V124H231.582Z" stroke="white" stroke-width="2"/>
    <path d="M512.646 75.1914L493.057 30.6992L472.305 75.1914H512.646ZM450.225 124H409.136L472.554 1.56348H518.042L578.555 124H532.9L523.687 101.92H460.103L450.225 124Z" stroke="white" stroke-width="2"/>
    <path d="M622.715 26.3828V50.8701H645.957C656.748 50.8701 662.144 46.8027 662.144 38.668C662.144 30.4779 656.748 26.3828 645.957 26.3828H622.715ZM581.709 124V1.56348H651.934C663.112 1.56348 670.417 1.70182 673.848 1.97852C683.255 2.75326 690.228 4.66243 694.766 7.70605C702.568 12.9079 706.47 21.181 706.47 32.5254C706.47 41.1582 703.454 47.9925 697.422 53.0283C691.999 57.6214 684.832 60.25 675.923 60.9141C685.054 61.4121 691.694 63.0169 695.845 65.7285C700.991 69.0488 704.035 74.8594 704.976 83.1602L707.217 103.497C707.77 108.699 709.292 115.533 711.782 124H669.282C667.843 120.126 666.875 114.454 666.377 106.983L665.215 90.0498C664.827 84.2393 663.389 80.3932 660.898 78.5117C658.74 76.8516 654.618 76.0215 648.53 76.0215H622.715V124H581.709Z" stroke="white" stroke-width="2"/>
    <path d="M725.479 124V1.56348H834.634V27.96H766.484V47.4668H829.487V73.5312H766.484V97.2715H837.207V124H725.479Z" stroke="white" stroke-width="2"/>
</svg>